<svg id="Group_296" data-name="Group 296" xmlns="http://www.w3.org/2000/svg" xmlns:xlink="http://www.w3.org/1999/xlink" width="123.48" height="123.65" viewBox="0 0 123.48 123.65">
  <defs>
    <clipPath id="clip-path">
      <rect id="Rectangle_70" data-name="Rectangle 70" width="123.48" height="123.65" transform="translate(0 0)" fill="none"/>
    </clipPath>
  </defs>
  <g id="Group_291" data-name="Group 291" clip-path="url(#clip-path)">
    <path id="Path_10873" data-name="Path 10873" d="M123.48,3.275S100.688,8.323,92.472,25.323s-15.7,17-15.7,17l2.056,1.119s-4.856,8.777-8.968,9.9c0,0-3.736,13.824-15.128,16.816,0,0-12.335,22.106-39.792,19.991a100.675,100.675,0,0,0-7.708,16.02,19.28,19.28,0,0,0-1.26,7.892L0,121.154C18,48.332,80.512,14.144,81.618,13.68,33.19,48.682,16.875,86.9,16.875,86.9c17.56,2.365,32.754-15.563,32.754-15.563L44.272,69.97c16.44-2.616,20.921-16.314,20.921-16.314l-3.98-.5c8.718-2.742,9.712-9.219,9.712-9.219a39.481,39.481,0,0,1-7.346-.869C79.518,39.456,86.12,24.512,90.232,18.035S103.864,5.147,103.864,5.147C83.563,3.9,67.44,8.44,56.6,15.294S38.016,34.283,38.016,34.283l1.12-7.84c-1.5,1.4-6.352,8.592-9.343,13.544s-8.136,12.232-8.136,12.232l-.412-8.268C11.827,54.835,9.151,71.977,10.884,79.911c-5.1-7.561-1.1-36.544,15.7-44.442,0,0-1.5,6.227-1.872,8.592A45.279,45.279,0,0,1,44.773,18.035,45.8,45.8,0,0,0,41.9,24.748c.4-.656,13.632-21.694,40.484-24.089,27.272-2.424,41.1,2.616,41.1,2.616" fill="#96653a"/>
    <path id="Path_10874" data-name="Path 10874" d="M.742,119.876c1.4-.491,2.858-1.13,4.291-1.718l4.33-1.789c2.9-1.178,5.811-2.316,8.759-3.374s5.927-2.038,8.955-2.873a58.883,58.883,0,0,1,9.261-1.865,24.853,24.853,0,0,1,4.782-.087,13.608,13.608,0,0,1,2.4.42,6.464,6.464,0,0,1,1.2.432,2.28,2.28,0,0,1,1.118,1.022,1.461,1.461,0,0,1,.091.91,2.155,2.155,0,0,1-.312.711,4.871,4.871,0,0,1-.883.972,15.266,15.266,0,0,1-1.972,1.409c-1.353.834-2.745,1.557-4.129,2.28l-2.06,1.087A11.282,11.282,0,0,0,34.7,118.6a.776.776,0,0,0-.108.12c0,.007,0,0,.01-.045a.294.294,0,0,0-.048-.195c-.076-.086-.051-.039,0-.029a1.6,1.6,0,0,0,.207.046,10.555,10.555,0,0,0,1.1.054q1.187.015,2.363.107c3.143.231,6.234.743,9.313,1.255,6.151,1.059,12.29,2.116,18.494,2.647q4.648.41,9.319.478c3.111.032,6.223-.064,9.33-.26s6.2-.55,9.287-.966c3.079-.463,6.154-.97,9.2-1.636a165.365,165.365,0,0,0,18.03-4.92.118.118,0,0,1,.075.224,165.781,165.781,0,0,1-18.023,5.075c-3.047.692-6.127,1.226-9.213,1.716-3.093.442-6.2.817-9.316,1.045s-6.245.344-9.373.336-6.255-.154-9.372-.4c-6.239-.483-12.422-1.5-18.572-2.5-3.077-.487-6.155-.969-9.239-1.171q-1.156-.08-2.311-.086a11,11,0,0,1-1.232-.053,2.378,2.378,0,0,1-.363-.08.914.914,0,0,1-.489-.33.674.674,0,0,1-.116-.471.87.87,0,0,1,.113-.318,1.574,1.574,0,0,1,.267-.326,11.732,11.732,0,0,1,2.056-1.35l2.068-1.116c1.374-.733,2.745-1.463,4.041-2.279a14.424,14.424,0,0,0,1.821-1.323,3.924,3.924,0,0,0,.684-.756c.173-.271.2-.468.135-.588a1.307,1.307,0,0,0-.611-.486,5.469,5.469,0,0,0-1.005-.349,12.513,12.513,0,0,0-2.206-.366,23.77,23.77,0,0,0-4.559.124,57.657,57.657,0,0,0-9.051,1.9c-2.98.849-5.924,1.844-8.839,2.916s-5.805,2.229-8.678,3.426l-4.305,1.82c-1.448.606-2.841,1.237-4.382,1.793a.737.737,0,0,1-.5-1.386l.006,0Z" fill="#96653a"/>
  </g>
</svg>
