<svg xmlns="http://www.w3.org/2000/svg" xmlns:xlink="http://www.w3.org/1999/xlink" width="74.366" height="124" viewBox="0 0 74.366 124">
  <defs>
    <clipPath id="clip-path">
      <rect id="Rectangle_72" data-name="Rectangle 72" width="74.366" height="73.512" fill="#9e4648"/>
    </clipPath>
    <clipPath id="clip-path-2">
      <rect id="Rectangle_72-2" data-name="Rectangle 72" width="15.88" height="15.698" fill="#9e4648"/>
    </clipPath>
  </defs>
  <g id="Group_306" data-name="Group 306" transform="translate(-746 -2364.677)">
    <g id="Group_304" data-name="Group 304" transform="translate(746 2364.677)" opacity="0.164">
      <g id="Group_301" data-name="Group 301" clip-path="url(#clip-path)">
        <path id="Path_10915" data-name="Path 10915" d="M74.366,35.044a7,7,0,0,0-1.71-5.127c-2.283-1.712-3.417-4.553-3.417-8.547a11.014,11.014,0,0,0-2.992-8.124,31.119,31.119,0,0,0-6.839-5.127A56.146,56.146,0,0,0,52.141,4.7a13.629,13.629,0,0,1-4.273-2.139C46.159.853,44.729,0,43.6,0A45.253,45.253,0,0,0,37.61,1.28q-5.129,1.281-5.129,3.846a3.44,3.44,0,0,1-2.564-.854c-.573-.56-1.71-.854-3.419-.854a15.565,15.565,0,0,0-9.829,2.989,26.4,26.4,0,0,0-6.412,7.266A41.683,41.683,0,0,0,6.41,21.8a47.839,47.839,0,0,1-2.136,5.554c-1.149,1.712-2.136,2.712-2.993,2.992A1.985,1.985,0,0,0,0,32.482c0,2.855.561,4.847,1.708,5.981a4.972,4.972,0,0,1,1.71,3.419Q.853,44.451.854,46.156c1.71,0,3.419,1.432,5.129,4.278a75.188,75.188,0,0,0,6.839,9.4,72.708,72.708,0,0,0,9.4,9.4,19.3,19.3,0,0,0,12.822,4.273q6.83,0,17.095-3.419T64.963,57.268c-1.149,0-1.709-.28-1.709-.854,0-1.134,1.417-2.566,4.275-4.273q4.265-2.561,5.983-2.566L71.8,39.317c1.71,0,2.564-1.414,2.564-4.273" fill="#9e4648"/>
      </g>
    </g>
    <g id="Group_305" data-name="Group 305" transform="translate(796 2472.979)" opacity="0.164">
      <g id="Group_301-2" data-name="Group 301" clip-path="url(#clip-path-2)">
        <path id="Path_10915-2" data-name="Path 10915" d="M15.88,7.483a1.5,1.5,0,0,0-.365-1.095,2.132,2.132,0,0,1-.73-1.825,2.352,2.352,0,0,0-.639-1.735,6.645,6.645,0,0,0-1.46-1.095A11.99,11.99,0,0,0,11.134,1a2.91,2.91,0,0,1-.912-.457A1.5,1.5,0,0,0,9.309,0,9.663,9.663,0,0,0,8.031.273q-1.1.273-1.1.821A.735.735,0,0,1,6.389.912,1.07,1.07,0,0,0,5.658.73a3.324,3.324,0,0,0-2.1.638A5.637,5.637,0,0,0,2.19,2.92a8.9,8.9,0,0,0-.821,1.735A10.216,10.216,0,0,1,.913,5.841a1.544,1.544,0,0,1-.639.639A.424.424,0,0,0,0,6.936,1.769,1.769,0,0,0,.365,8.214a1.062,1.062,0,0,1,.365.73,1.5,1.5,0,0,0-.547.913c.365,0,.73.306,1.1.913a16.056,16.056,0,0,0,1.46,2.007,15.526,15.526,0,0,0,2.008,2.008,4.122,4.122,0,0,0,2.738.913,11.98,11.98,0,0,0,3.65-.73,3.879,3.879,0,0,0,2.738-2.739c-.245,0-.365-.06-.365-.182,0-.242.3-.548.913-.913a3.165,3.165,0,0,1,1.278-.548L15.333,8.4c.365,0,.547-.3.547-.913" fill="#9e4648"/>
      </g>
    </g>
  </g>
</svg>
